<!--?xml version="1.0" encoding="utf-8"?-->
<!-- Generator: Adobe Illustrator 18.0.0, SVG Export Plug-In . SVG Version: 6.00 Build 0)  -->

<svg version="1.1" id="_x31_0" xmlns="http://www.w3.org/2000/svg" xmlns:xlink="http://www.w3.org/1999/xlink" x="0px" y="0px" viewBox="0 0 512 512" style="width: 48px; height: 48px; opacity: 1;" xml:space="preserve">
<style type="text/css">
	.st0{fill:#374149;}
</style>
<g>
	<path class="st0" d="M256,0C114.617,0,0,114.614,0,256s114.617,256,256,256s256-114.614,256-256S397.383,0,256,0z M256,448
		c-105.867,0-192-86.133-192-192S150.133,64,256,64s192,86.133,192,192S361.867,448,256,448z" style="fill: rgb(75, 75, 75);"></path>
	<path class="st0" d="M256,102.633c-12.054,0-21.68,4.508-28.602,13.402c-6.633,8.523-9.992,20.598-9.992,35.886
		c0,3.414,0.781,10.629,2.398,22.059c1.554,11.109,3.875,25.164,7.086,42.984c2.844,15.371,5.282,30.133,7.242,43.867
		c1.992,13.965,3.984,28.359,5.969,43c0.382,3.906,2.031,7.442,4.906,10.519c2.875,3.051,6.156,4.906,9.774,5.512
		c0.75,0.125,1.492,0.184,2.226,0.184c3.156,0,6.141-1.122,8.859-3.332c3.25-2.641,5.351-7.028,6.453-13.618
		c1.985-15.957,3.836-30.492,5.547-43.606c1.695-12.98,3.984-27.289,6.813-42.574c3.14-18,5.578-32.426,7.289-43.285
		c1.789-11.359,2.625-18.258,2.625-21.711c0-15.277-3.359-27.351-9.992-35.886C277.68,107.141,268.054,102.633,256,102.633z" style="fill: rgb(75, 75, 75);"></path>
	<path class="st0" d="M256.031,343.844c-9.148,0-16.93,3.21-23.125,9.542c-6.156,6.301-9.274,14.118-9.274,23.219
		c0,9.086,3.047,16.882,9.054,23.179c6.07,6.36,13.797,9.582,22.977,9.582c9.156,0,17.054-3.332,23.477-9.906
		c6.406-6.546,9.648-14.234,9.648-22.855c0-9.125-3.195-16.954-9.5-23.258C272.984,347.043,265.156,343.844,256.031,343.844z" style="fill: rgb(75, 75, 75);"></path>
</g>
</svg>
